<svg width="104" height="48" xmlns="http://www.w3.org/2000/svg"><path d="M5.428 41.731c-2.361 0-4.201-1.84-4.201-4.278 0-2.438 1.84-4.262 4.201-4.262 1.901 0 3.281 1.073 3.71 2.775h1.258c-.49-2.346-2.407-3.91-4.968-3.91C2.423 32.056 0 34.371 0 37.453c0 3.082 2.423 5.413 5.428 5.413 2.56 0 4.477-1.58 4.968-3.925H9.139c-.43 1.686-1.81 2.79-3.711 2.79ZM15.78 35.368c-2.147 0-3.788 1.625-3.788 3.741 0 2.147 1.64 3.742 3.787 3.742 2.116 0 3.772-1.595 3.772-3.742 0-2.116-1.656-3.741-3.772-3.741Zm0 6.41c-1.503 0-2.623-1.166-2.623-2.669 0-1.472 1.12-2.668 2.622-2.668 1.488 0 2.592 1.196 2.592 2.668 0 1.503-1.104 2.668-2.592 2.668ZM25.25 35.368c-1.012 0-1.886.353-2.546.981v-.797H21.54v7.115h1.165v-4.999c.614-.797 1.488-1.227 2.331-1.227 1.257 0 2.1.767 2.1 2.208v4.018h1.166v-4.079c0-2.009-1.242-3.22-3.051-3.22ZM35.99 35.552l-2.653 5.643-2.652-5.643h-1.242l3.358 7.115h1.073l3.358-7.115H35.99ZM45.148 39.017c-.016-2.146-1.457-3.649-3.527-3.649-2.147 0-3.65 1.64-3.65 3.741s1.519 3.742 3.712 3.742c1.533 0 2.76-.736 3.204-1.963h-1.303c-.307.598-.997.92-1.902.92-1.487 0-2.392-1.027-2.53-2.346h5.92v-.015l.045.015c.03-.153.03-.291.03-.445ZM41.62 36.38c1.35 0 2.208.874 2.33 2.254h-4.783c.169-1.257 1.043-2.254 2.453-2.254ZM48.295 36.717v-1.165h-1.166v7.115h1.166v-4.631c.628-.981 1.58-1.518 2.744-1.549v-1.104c-1.134 0-2.085.491-2.744 1.334ZM57.359 41.517c-.383.138-.828.245-1.227.245-1.012 0-1.533-.506-1.533-1.733v-3.48h2.683v-.997H54.6V32.93h-1.165v2.622h-1.856v.997h1.856v3.48c0 1.856.843 2.822 2.591 2.822.43 0 .92-.062 1.503-.261l-.169-1.073ZM65.692 39.017c-.015-2.146-1.457-3.649-3.527-3.649-2.146 0-3.649 1.64-3.649 3.741s1.518 3.742 3.71 3.742c1.534 0 2.76-.736 3.205-1.963h-1.303c-.307.598-.997.92-1.901.92-1.488 0-2.392-1.027-2.53-2.346h5.918v-.015l.046.015c.031-.153.031-.291.031-.445Zm-3.527-2.637c1.35 0 2.208.874 2.331 2.254h-4.784c.169-1.257 1.043-2.254 2.453-2.254ZM68.84 36.717v-1.165h-1.166v7.115h1.165v-4.631c.629-.981 1.58-1.518 2.745-1.549v-1.104c-1.135 0-2.085.491-2.745 1.334ZM101.795 24.001l-5.02-6.247 4.94-6.193h-2.483l-3.818 4.692-3.791-4.692h-2.51l4.94 6.193.026.027L89.033 24h2.456l3.952-4.826 3.897 4.826h2.457ZM84.691 9.338c.775 0 1.389-.59 1.389-1.34 0-.778-.614-1.368-1.389-1.368-.774 0-1.361.59-1.361 1.368 0 .75.587 1.34 1.361 1.34Zm-.988 2.223V24h2.03v-12.44h-2.03Z" fill="#fff"/><path fill-rule="evenodd" clip-rule="evenodd" d="M77.36 10.687c-.823-.52-1.852-.694-2.542-.685H70.48v6.804h4.353c.675.02 1.7-.154 2.523-.68.765-.488 1.391-1.295 1.391-2.728 0-1.43-.624-2.228-1.388-2.711Zm-6.88 8.12v5.192h-2V8.002h6.32c.957-.011 2.395.214 3.629.995 1.296.82 2.318 2.23 2.318 4.401 0 2.169-1.02 3.588-2.314 4.414-1.231.786-2.668 1.018-3.64.994h-4.314Z" fill="#fff"/><path d="M38.625 2.922c-1.735 0-3.15 1.436-3.15 3.197 0 .653.225 1.305.579 1.86h5.174c.386-.555.611-1.175.611-1.86-.032-1.761-1.478-3.197-3.214-3.197ZM0 8.015h4.307v11.94h9.48v4.044H0V8.015ZM36.6 11.502h4.082v12.5H36.6v-12.5Z" fill="#fff"/><path fill-rule="evenodd" clip-rule="evenodd" d="M52.444 7.625c1.864 0 3.439.522 4.82 1.892V8h3.986v16h-3.985v-1.63c-1.382 1.337-2.925 1.859-4.821 1.859-4.114 0-7.714-3.425-7.714-8.286 0-4.893 3.6-8.318 7.714-8.318Zm.9 12.852c1.639 0 3.15-.782 3.92-2.61V14.02c-.77-1.827-2.281-2.61-3.92-2.61-2.668 0-4.5 2.055-4.5 4.534 0 2.512 1.832 4.534 4.5 4.534ZM16.1 15.926c0-4.771 3.446-8.3 8.437-8.3 4.83 0 8.017 3.496 8.017 8.202 0 .49-.032 1.013-.096 1.569H20.222c.612 2.026 2.48 3.104 4.54 3.104 1.45 0 2.963-.49 4.315-1.732l2.48 2.713c-1.385 1.438-3.929 2.745-6.923 2.745-5.088 0-8.533-3.53-8.533-8.301Zm8.501-4.739c-1.964 0-3.606 1.013-4.25 2.942h8.05a3.887 3.887 0 0 0-3.8-2.942Z" fill="#fff"/></svg>