<svg width="191" height="40" fill="none" xmlns="http://www.w3.org/2000/svg"><path d="m47.774 23.493 2.82-.642c.276 1.899 1.596 2.85 3.648 2.85 2.053 0 3.157-.889 3.157-2.238 0-3.862-9.103-.8-9.103-7.2 0-2.729 2.361-4.659 5.856-4.659 2.91 0 5.456 1.563 5.946 4.445l-2.667.766c-.278-1.625-1.565-2.514-3.373-2.514-1.747 0-2.85.828-2.85 1.992 0 3.494 9.258.4 9.258 6.927 0 3.096-2.517 5.18-6.348 5.18-3.523 0-5.944-1.81-6.344-4.907ZM81.666 12h3.036v2.085h.244c.675-1.35 2.267-2.484 4.601-2.484 3.62 0 5.856 2.698 5.856 6.134V28h-3.035v-9.749c0-2.267-1.655-3.8-3.68-3.8-2.236 0-3.984 1.747-3.984 4.077v9.47H81.67l-.002-16ZM113.472 7.433h3.035v6.652h.245c.673-1.32 2.334-2.484 4.63-2.484 3.617 0 5.946 2.698 5.946 6.134V28h-3.035v-9.749c0-2.267-1.715-3.8-3.77-3.8-2.176 0-4.016 1.656-4.016 3.923V28h-3.035V7.433ZM130.927 20.03c0-5.057 3.588-8.429 7.878-8.429 4.875 0 7.725 3.467 7.725 8.245v.953h-12.478c.033 3.126 1.934 4.966 4.905 4.966 1.995 0 3.868-1.104 4.416-3.096l2.851.704c-.981 3.158-3.772 5.027-7.268 5.027-4.871 0-8.029-3.467-8.029-8.37Zm12.506-1.533c-.152-2.728-2.207-4.23-4.628-4.23-2.454 0-4.505 1.778-4.72 4.23h9.348ZM149.451 23.493l2.821-.642c.274 1.899 1.595 2.85 3.646 2.85 2.052 0 3.158-.889 3.158-2.238 0-3.862-9.103-.8-9.103-7.2 0-2.729 2.361-4.659 5.855-4.659 2.911 0 5.457 1.563 5.946 4.445l-2.667.766c-.277-1.625-1.565-2.514-3.372-2.514-1.748 0-2.85.828-2.85 1.992 0 3.494 9.257.4 9.257 6.927 0 3.096-2.516 5.18-6.347 5.18-3.523 0-5.945-1.81-6.344-4.907ZM172.524 20c0-4.813 3.096-8.4 7.511-8.4 3.095 0 4.565 1.839 5.179 2.697h.245v-2.298h3.035v12.506c0 .49.308.734.8.734h.734v2.76h-2.177c-1.318 0-2.329-.827-2.329-2.206h-.214c-.552.766-1.9 2.604-5.09 2.604-4.445.002-7.694-3.524-7.694-8.398Zm13.027.03c0-3.556-2.267-5.609-4.997-5.609-2.85 0-4.964 2.334-4.964 5.61 0 3.371 2.206 5.577 4.996 5.577 3.034 0 4.965-2.542 4.965-5.577ZM166.248 12.858v15.141h3.035V11.601l-3.035 1.257ZM78.47 12h-3.343l-4.538 13.088h-.245l-4.2-13.089H62.83l5.701 16h.757l-.047.123c-.46 1.133-1.103 1.685-2.392 1.685h-2.899v2.758h2.867c2.454 0 4.139-.95 4.968-3.094l6.684-17.472ZM169.283 7.433h-3.035v3.035h3.035V7.433ZM109.418 14.636v-2.637h-4.72V7.433l-2.85 1.181v3.385H98.75v2.637h2.913v8.674c0 3.31 1.992 4.69 4.997 4.69h2.576v-2.667h-2.546c-1.41 0-1.992-.613-1.992-2.054v-8.643h4.72Z" fill="#0F141E"/><g clip-path="url(#a)"><path d="M8 10.898a2.472 2.472 0 0 1-.253-4.933A16.862 16.862 0 0 0 18.241.791a2.472 2.472 0 0 1 3.59 3.4 21.805 21.805 0 0 1-13.573 6.697 2.416 2.416 0 0 1-.258.01Z" fill="url(#b)"/><path d="M32.044 29.14a2.472 2.472 0 0 1 .253 4.932 16.862 16.862 0 0 0-10.494 5.174 2.473 2.473 0 0 1-3.59-3.4 21.805 21.805 0 0 1 13.573-6.697c.086-.008.172-.011.258-.01Z" fill="url(#c)"/><path d="M29.144 7.998a2.471 2.471 0 0 1 4.934-.252 16.857 16.857 0 0 0 5.175 10.492 2.473 2.473 0 1 1-3.4 3.59 21.798 21.798 0 0 1-6.699-13.572 2.39 2.39 0 0 1-.01-.258Z" fill="url(#d)"/><path d="M10.9 32.04a2.471 2.471 0 0 1-4.934.251A16.857 16.857 0 0 0 .79 21.8a2.471 2.471 0 1 1 3.4-3.59 21.799 21.799 0 0 1 6.699 13.572c.008.086.011.172.01.258Z" fill="url(#e)"/><path d="M17.971 5.07a2.471 2.471 0 0 1 3.31-3.667 16.863 16.863 0 0 0 11.08 3.76 2.473 2.473 0 1 1 .134 4.943 21.806 21.806 0 0 1-14.334-4.86 2.42 2.42 0 0 1-.19-.176Z" fill="url(#f)"/><path d="M22.073 34.968a2.47 2.47 0 0 1-3.31 3.666 16.862 16.862 0 0 0-11.08-3.76 2.472 2.472 0 0 1-.134-4.943 21.806 21.806 0 0 1 14.334 4.861 2.4 2.4 0 0 1 .19.176Z" fill="url(#g)"/><path d="M34.974 17.968a2.471 2.471 0 0 1 3.667 3.31 16.856 16.856 0 0 0-3.761 11.078 2.47 2.47 0 0 1-2.405 2.538 2.474 2.474 0 0 1-2.539-2.404 21.797 21.797 0 0 1 4.862-14.332c.055-.067.114-.13.175-.19Z" fill="url(#h)"/><path d="M5.07 22.07a2.472 2.472 0 0 1-3.667-3.31A16.856 16.856 0 0 0 5.164 7.681a2.472 2.472 0 0 1 4.944-.135A21.798 21.798 0 0 1 5.246 21.88c-.055.066-.114.13-.176.19Z" fill="url(#i)"/></g><defs><radialGradient id="b" cx="0" cy="0" r="1" gradientUnits="userSpaceOnUse" gradientTransform="matrix(15.5478 0 0 15.5453 20.167 2.404)"><stop offset=".15" stop-color="#004BFF"/><stop offset="1" stop-color="#004BFF" stop-opacity=".1"/></radialGradient><radialGradient id="c" cx="0" cy="0" r="1" gradientUnits="userSpaceOnUse" gradientTransform="matrix(-15.5478 0 0 -15.5453 19.877 37.633)"><stop offset=".15" stop-color="#004BFF"/><stop offset="1" stop-color="#004BFF" stop-opacity=".1"/></radialGradient><radialGradient id="d" cx="0" cy="0" r="1" gradientUnits="userSpaceOnUse" gradientTransform="matrix(0 15.5453 -15.5478 0 37.64 20.163)"><stop offset=".15" stop-color="#004BFF"/><stop offset="1" stop-color="#004BFF" stop-opacity=".1"/></radialGradient><radialGradient id="e" cx="0" cy="0" r="1" gradientUnits="userSpaceOnUse" gradientTransform="matrix(0 -15.5453 15.5478 0 2.405 19.874)"><stop offset=".15" stop-color="#004BFF"/><stop offset="1" stop-color="#004BFF" stop-opacity=".1"/></radialGradient><radialGradient id="f" cx="0" cy="0" r="1" gradientUnits="userSpaceOnUse" gradientTransform="rotate(44.995 7.036 43.167) scale(15.5466)"><stop offset=".15" stop-color="#004BFF"/><stop offset="1" stop-color="#004BFF" stop-opacity=".1"/></radialGradient><radialGradient id="g" cx="0" cy="0" r="1" gradientUnits="userSpaceOnUse" gradientTransform="rotate(-135.005 10.435 14.64) scale(15.5466)"><stop offset=".15" stop-color="#004BFF"/><stop offset="1" stop-color="#004BFF" stop-opacity=".1"/></radialGradient><radialGradient id="h" cx="0" cy="0" r="1" gradientUnits="userSpaceOnUse" gradientTransform="rotate(135.005 9.443 22.993) scale(15.5466)"><stop offset=".15" stop-color="#004BFF"/><stop offset="1" stop-color="#004BFF" stop-opacity=".1"/></radialGradient><radialGradient id="i" cx="0" cy="0" r="1" gradientUnits="userSpaceOnUse" gradientTransform="rotate(-44.995 12.84 -5.525) scale(15.5466)"><stop offset=".15" stop-color="#004BFF"/><stop offset="1" stop-color="#004BFF" stop-opacity=".1"/></radialGradient><clipPath id="a"><path fill="#fff" d="M0 0h40.006v40H0z"/></clipPath></defs></svg>