<svg xmlns="http://www.w3.org/2000/svg" viewBox="0 0 239.353 136.773" xml:space="preserve"><path fill="#2FAE8F" d="M91.78 92.244c-6.477 6.477-15.092 10.046-24.254 10.046s-17.779-3.57-24.255-10.046c-5.692-5.692-9.167-13.213-9.895-21.147-.383 4.625-4.027 8.455-8.808 8.9a9.795 9.795 0 0 1-.92.042c-4.979 0-9.232-3.793-9.702-8.852a54.558 54.558 0 0 1-.213-4.453c-.249 10.976 2.895 21.714 8.846 30.781 2.598 7.466 3.011 14.448-2.336 23.021-5.329 8.539 21.347-4.496 21.347-4.496 5.15 2.517 4.832 2.728 12.31 4.433 2.231.509 6.766 1.175 9.054 1.342.067.005 1.181.059 1.248.059 2.021.001.979.003 3.18 0 .595-.001 2.159.003 2.757.003 14.374 0 25.278-5.671 35.44-15.835 3.81-3.81 3.807-9.988-.001-13.798-3.809-3.811-9.987-3.812-13.798 0z"/><path fill="#005393" d="M23.97 56.167c5.005.227 8.943 4.199 9.273 9.079a34.18 34.18 0 0 1 10.03-23.34c13.375-13.375 35.136-13.375 48.51 0 3.811 3.812 9.992 3.812 13.803 0 3.809-3.809 3.809-9.986 0-13.798-20.988-20.983-55.125-20.983-76.115 0-10.305 10.308-15.9 24.187-15.737 38.627.01-.426.014-.851.034-1.277.251-5.383 4.846-9.535 10.202-9.291z"/><path fill="#00515F" d="M23.648 80.039c.307 0 .611-.013.92-.042 4.782-.445 8.425-4.275 8.808-8.9a34.014 34.014 0 0 1-.13-4.017 33.985 33.985 0 0 1-.002-1.834c-.33-4.881-4.268-8.852-9.273-9.079-5.357-.244-9.951 3.908-10.203 9.291-.02.426-.024.851-.034 1.277.017 1.48.073 2.964.213 4.453.469 5.058 4.721 8.851 9.701 8.851z"/><path d="M70.199 78.128c-2.735 0-4.813-.82-6.234-2.462-1.422-1.641-2.133-3.996-2.133-7.065 0-3.125.744-5.528 2.23-7.209 1.487-1.68 3.636-2.521 6.447-2.521 1.907 0 3.622.364 5.148 1.093l-1.16 3.176c-1.624-.649-2.964-.975-4.021-.975-3.127 0-4.69 2.134-4.69 6.402 0 2.083.39 3.649 1.169 4.696.779 1.048 1.92 1.571 3.423 1.571 1.711 0 3.329-.438 4.854-1.311v3.444a7.505 7.505 0 0 1-2.198.891c-.779.18-1.724.27-2.835.27zM95.513 68.466c0 3.036-.757 5.405-2.272 7.108-1.515 1.703-3.623 2.554-6.325 2.554-1.688 0-3.181-.392-4.478-1.176-1.297-.784-2.293-1.91-2.991-3.378-.697-1.467-1.046-3.17-1.046-5.108 0-3.013.752-5.365 2.255-7.057 1.503-1.691 3.622-2.538 6.357-2.538 2.615 0 4.685.866 6.21 2.597 1.527 1.731 2.29 4.064 2.29 6.998zm-13.156 0c0 4.291 1.542 6.436 4.625 6.436 3.051 0 4.576-2.145 4.576-6.436 0-4.245-1.536-6.368-4.609-6.368-1.612 0-2.781.549-3.505 1.646-.724 1.099-1.087 2.672-1.087 4.722zM115.827 77.792h-3.857V66.367c0-1.435-.281-2.504-.842-3.21-.561-.706-1.452-1.059-2.672-1.059-1.624 0-2.811.493-3.562 1.479-.752.986-1.128 2.639-1.128 4.957v9.259h-3.84V59.208h3.007l.54 2.436h.196c.545-.885 1.318-1.568 2.321-2.051 1.002-.482 2.114-.723 3.334-.723 4.336 0 6.504 2.269 6.504 6.806v12.116zM133.313 72.499c0 1.814-.644 3.207-1.929 4.176-1.285.969-3.127 1.453-5.523 1.453-2.408 0-4.342-.375-5.802-1.126v-3.411c2.124 1.009 4.103 1.513 5.933 1.513 2.363 0 3.546-.733 3.546-2.201 0-.471-.131-.862-.392-1.177-.262-.313-.692-.638-1.291-.975-.6-.336-1.434-.716-2.501-1.143-2.081-.828-3.489-1.657-4.225-2.486-.735-.829-1.103-1.904-1.103-3.226 0-1.59.624-2.825 1.871-3.705 1.247-.879 2.943-1.319 5.09-1.319 2.125 0 4.135.443 6.031 1.328l-1.242 2.974c-1.951-.828-3.59-1.243-4.92-1.243-2.025 0-3.039.594-3.039 1.781 0 .583.264 1.075.793 1.478.527.403 1.68.958 3.456 1.664 1.493.594 2.577 1.137 3.252 1.63.676.493 1.177 1.062 1.504 1.705.328.644.491 1.414.491 2.31zM145.357 78.128c-2.811 0-5.009-.843-6.594-2.528-1.586-1.687-2.378-4.008-2.378-6.966 0-3.035.735-5.421 2.206-7.158 1.471-1.735 3.492-2.604 6.062-2.604 2.387 0 4.271.745 5.655 2.235 1.384 1.49 2.075 3.54 2.075 6.15v2.134H140.34c.055 1.804.529 3.189 1.422 4.158.895.97 2.152 1.454 3.775 1.454 1.068 0 2.062-.104 2.982-.311.921-.207 1.91-.551 2.967-1.033v3.21c-.938.459-1.885.784-2.844.975s-2.053.284-3.285.284zm-.703-16.266c-1.22 0-2.197.399-2.933 1.193-.735.796-1.175 1.955-1.316 3.479h8.203c-.021-1.535-.381-2.697-1.078-3.487-.696-.789-1.655-1.185-2.876-1.185zM172.65 77.792h-3.857V66.367c0-1.435-.281-2.504-.842-3.21-.561-.706-1.451-1.059-2.672-1.059-1.623 0-2.811.493-3.562 1.479-.752.986-1.128 2.639-1.128 4.957v9.259h-3.841V59.208h3.008l.539 2.436h.195c.545-.885 1.318-1.568 2.321-2.051 1.003-.482 2.114-.723 3.334-.723 4.336 0 6.505 2.269 6.505 6.806v12.116zM190.137 72.499c0 1.814-.643 3.207-1.93 4.176-1.285.969-3.127 1.453-5.523 1.453-2.408 0-4.342-.375-5.801-1.126v-3.411c2.124 1.009 4.102 1.513 5.932 1.513 2.364 0 3.547-.733 3.547-2.201 0-.471-.131-.862-.393-1.177-.262-.313-.691-.638-1.291-.975-.6-.336-1.433-.716-2.5-1.143-2.082-.828-3.49-1.657-4.225-2.486-.736-.829-1.104-1.904-1.104-3.226 0-1.59.623-2.825 1.871-3.705 1.248-.879 2.944-1.319 5.091-1.319 2.124 0 4.135.443 6.03 1.328l-1.242 2.974c-1.95-.828-3.59-1.243-4.919-1.243-2.026 0-3.04.594-3.04 1.781 0 .583.265 1.075.793 1.478s1.681.958 3.457 1.664c1.492.594 2.576 1.137 3.252 1.63.676.493 1.176 1.062 1.504 1.705.327.644.491 1.414.491 2.31zM207.034 77.792l-.54-2.437h-.195c-.534.863-1.294 1.54-2.279 2.033-.986.493-2.111.739-3.375.739-2.189 0-3.824-.56-4.902-1.681-1.079-1.119-1.619-2.816-1.619-5.091V59.208h3.873v11.459c0 1.423.283 2.49.851 3.201.566.712 1.454 1.067 2.663 1.067 1.613 0 2.798-.496 3.555-1.487.758-.991 1.137-2.652 1.137-4.982v-9.258h3.856v18.584h-3.025zM227.675 72.499c0 1.814-.644 3.207-1.929 4.176-1.285.969-3.127 1.453-5.523 1.453-2.408 0-4.342-.375-5.802-1.126v-3.411c2.124 1.009 4.102 1.513 5.933 1.513 2.363 0 3.546-.733 3.546-2.201 0-.471-.131-.862-.392-1.177-.262-.313-.692-.638-1.291-.975-.6-.336-1.434-.716-2.501-1.143-2.081-.828-3.489-1.657-4.225-2.486-.735-.829-1.103-1.904-1.103-3.226 0-1.59.623-2.825 1.871-3.705 1.247-.879 2.943-1.319 5.09-1.319 2.125 0 4.135.443 6.031 1.328l-1.242 2.974c-1.951-.828-3.59-1.243-4.92-1.243-2.025 0-3.039.594-3.039 1.781 0 .583.264 1.075.793 1.478.527.403 1.68.958 3.456 1.664 1.493.594 2.577 1.137 3.252 1.63.676.493 1.177 1.062 1.504 1.705.328.644.491 1.414.491 2.31z"/></svg>