<svg class="h-full w-auto" viewBox="0 0 139 27" fill="none" xmlns="http://www.w3.org/2000/svg"><path d="M37.748 6.123h3.824l.359 1.99c.748-1.574 2.36-2.346 4.06-2.346.836 0 1.675.208 2.242.447l-.898 4.601a4.317 4.317 0 0 0-2.241-.595c-1.552 0-2.809 1.042-2.809 3.357v7.394h-4.537V6.123ZM49.806 15.442V6.03h4.605v8.552c0 1.723.998 2.643 2.452 2.643 1.485 0 2.755-1.128 2.755-3.622V6.029h4.605v14.848h-3.846l-.515-1.958c-.727 1.186-2.544 2.314-4.784 2.314-3.004 0-5.272-1.903-5.272-5.79ZM66.587 6.123h3.799l.509 1.958c.718-1.186 2.481-2.314 4.698-2.314 2.932 0 5.145 1.872 5.145 5.76v9.444h-4.549v-8.493c0-1.75-.9-2.701-2.395-2.701-1.376 0-2.663 1.127-2.663 3.68v7.514h-4.549V6.123h.005ZM81.786 6.03h4.55l2.688 10.13 2.392-6.663-1.18-3.468h4.518l2.925 10.13 2.598-10.13h4.577l-4.845 14.942h-4.667l-2.006-5.946-2.068 5.946h-4.64L81.786 6.029ZM105.117 13.5c0-5.106 3.684-7.733 7.075-7.733 2.082 0 3.568.825 4.309 1.681l.415-1.327h4.191V20.88h-3.983l-.623-1.444c-.624.736-1.96 1.798-4.52 1.798-3.654 0-6.864-3.012-6.864-7.733Zm11.564 0c0-2.39-1.545-3.864-3.509-3.864-1.991 0-3.508 1.506-3.508 3.864 0 2.358 1.517 3.869 3.508 3.869 1.964-.004 3.509-1.48 3.509-3.869ZM125.867 27l2.52-6.8-5.97-14.17h4.89l3.331 9.256 2.999-9.257h4.771L130.519 27h-4.652ZM20.699 26.983c-3.271.3-6.007-3.534-8.103-5.478C11.536 29.145-.008 28.42 0 20.671.004 17.416 0 9.462 0 6.31c0-1.134.311-2.275.895-3.243C2.002 1.19 4.142-.023 6.322.001c3.282.004 11.188-.004 14.377 0 7.756 0 8.493 11.54.827 12.578l3.638 3.633c3.996 3.758.997 10.937-4.465 10.771Zm-1.762-4.545c2.254 2.322 5.853-1.275 3.531-3.526l-6.305-6.297h-3.528v3.526l5.45 5.443.852.854ZM3.82 20.675c-.051 3.227 5.045 3.239 4.993 0V6.31C8.856 4.7 7.153 3.42 5.616 3.917a2.513 2.513 0 0 0-1.797 2.44v14.318ZM20.699 8.8c3.24.051 3.235-5.037 0-4.986h-8.564c.65 1.37.485 3.502.496 4.986H20.7Z" class="fill-current"/></svg>