<svg width="845" height="306" fill="none" xmlns="http://www.w3.org/2000/svg"><path d="M371.284 169.753h25.126c-4.428-29.359-28.631-49.784-59.167-49.784-33.06 0-58.954 26.806-58.954 61.037 0 34.231 25.894 61.363 58.954 61.363 31.059 0 54.722-20.033 59.167-49.955h-25.134c-3.326 17.38-16.792 29.008-33.706 29.008-20.608 0-35.005-16.621-35.005-40.424s14.397-40.09 35.005-40.09c17.094 0 30.56 11.562 33.714 28.845ZM726.409 152.152h22.912v88.528h-18.197v-11.351h-3.669s-4.225 13.007-24.448 13.007c-13.834 0-31.385-10.771-31.385-33.815v-56.369h21.465v50.282c0 12.436 7.746 19.511 17.045 19.511 8.302 0 16.269-8.234 16.269-20.172v-49.621h.008ZM805.653 242.336c-25.233 0-39.344-12.101-41.174-31.832h22.078c.163 9.115 7.967 14.925 19.423 14.925 8.963 0 15.77-2.815 15.77-9.115 0-5.638-3.653-7.956-12.118-9.612l-15.934-2.987c-15.933-2.815-25.567-11.603-25.567-25.361 0-16.41 14.111-27.85 36.19-27.85 22.078 0 37.522 11.775 39.18 30.836h-22.078c-.833-8.617-7.305-13.929-17.102-13.929-8.465 0-14.112 3.15-14.112 8.789 0 5.304 3.653 7.458 11.62 8.951l17.102 3.15c17.265 3.313 26.066 11.277 26.066 24.039 0 18.564-14.112 30.005-39.344 30.005v-.009ZM464.362 229.762h3.668v10.918h17.34v-55.7c0-21.722-13.614-34.484-36.852-34.484-21.417 0-36.19 13.26-37.522 33.651h20.755c.833-9.947 6.806-15.748 16.767-15.748 9.96 0 15.272 5.801 15.272 15.748v4.146h-14.774c-25.894 0-39.842 11.709-39.842 26.691 0 16.581 12.281 27.352 30.715 27.352 6.324 0 11.734-1.183 16.301-3.484 6.456-3.827 8.172-9.09 8.172-9.09Zm-33.445-15.439c0-7.956 6.472-12.101 19.586-12.101h13.278v7.458c0 8.062-8.628 16.744-18.924 16.744-8.637 0-13.948-4.643-13.948-12.101h.008ZM658.303 173.49v-21.338h-5.361c-13.882 1.493-16.955 10.837-16.955 10.837h-3.121l.025-43.02h-22.912v32.191h-17.928v21.339h17.928v38.515c0 19.894 11.456 30.339 29.718 30.339 6.807 0 12.118-1.159 17.764-3.982v-20.058c-3.317 1.82-7.305 2.816-11.619 2.816-8.302 0-12.951-4.146-12.951-14.427V173.49h25.412ZM505.348 240.859V119.961h23.075v69.833l32.374-37.471h26.564l-36.688 42.441 41.003 46.087h-29.384l-33.869-41.118v41.118h-23.075v.008Z" fill="#000"/><path d="m93 205.282-23.263-56.41a21.305 21.305 0 0 1-1.618-8.152v-25.402c0-6.683 3.13-12.991 8.45-17.038l39.368-29.94a21.449 21.449 0 0 1 21.359-2.676l7.583 3.207a21.418 21.418 0 0 1 12.861 16.696l7.517 52.656a21.338 21.338 0 0 1-2.149 12.795l-20.64 54.272H92.984l.016-.008Z" fill="url(#a)"/><path d="M68.127 115.318c0-6.683 3.13-12.991 8.45-17.038l39.368-29.94a21.449 21.449 0 0 1 21.359-2.676l3.922 1.657.343 75.594-73.442-27.597Z" fill="url(#b)"/><path d="m141.569 142.915-6.299 62.367H93.008l-23.263-56.41a21.305 21.305 0 0 1-1.618-8.152v-25.402l73.442 27.597Z" fill="url(#c)"/><path d="m141.57 142.915 21.555 8.095-20.64 54.272H93l48.57-62.367Z" fill="url(#d)"/><path d="M102.12 78.85 81.594 21.267a17.357 17.357 0 0 0-10.876-10.641L41.482.89a17.405 17.405 0 0 0-14.545 1.648L8.323 13.873a17.346 17.346 0 0 0-7.836 18.89l5.5 22.758a17.393 17.393 0 0 0 5.36 8.911L32.86 83.494a17.398 17.398 0 0 0 10.157 4.316l42.874 3.403 16.236-12.346-.008-.016Z" fill="url(#e)"/><path d="M102.12 78.85 81.594 21.267a17.357 17.357 0 0 0-10.876-10.641L41.482.89a17.405 17.405 0 0 0-14.545 1.648L8.323 13.873a17.346 17.346 0 0 0-7.836 18.89l5.5 22.758a17.393 17.393 0 0 0 5.36 8.911L32.86 83.494a17.398 17.398 0 0 0 10.157 4.316l42.874 3.403 16.236-12.346-.008-.016Z" fill="url(#f)"/><path d="m93.638 85.305 8.49-6.454-20.526-57.585a17.357 17.357 0 0 0-10.876-10.641L41.482.89a17.405 17.405 0 0 0-14.545 1.648L8.323 13.873l59.16 25.402 26.139 46.039.016-.009Z" fill="url(#g)"/><path d="M32.86 83.486a17.399 17.399 0 0 0 10.157 4.316l42.874 3.403 16.236-12.346-20.525-57.585-48.733 62.22-.008-.008Z" fill="url(#h)"/><path d="m159.718 99.365 20.746-23.37a13.29 13.29 0 0 1 15.305-3.33l16.105 7.108a13.265 13.265 0 0 1 7.697 14.517l-3.824 20.881c-1.168 6.357-6.749 10.951-13.229 10.877l-39.058-.481-3.742-26.194v-.008Z" fill="url(#i)"/><path d="m219.571 94.29-3.824 20.881c-1.169 6.357-6.749 10.951-13.229 10.877l-39.058-.481 26.295-24.611 29.816-6.666Z" fill="url(#j)"/><path d="M167.259 205.282H66.354c-4.513 0-8.17 3.653-8.17 8.16v7.801c0 4.506 3.657 8.16 8.17 8.16H167.26c4.513 0 8.171-3.654 8.171-8.16v-7.801c0-4.507-3.658-8.16-8.171-8.16Z" fill="url(#k)"/><path d="M145.818 306.001H87.754a7.745 7.745 0 0 1-7.574-6.112l-13.94-70.486H167.43l-14.03 70.486a7.745 7.745 0 0 1-7.575 6.112h-.008Z" fill="url(#l)"/><path d="m167.431 229.403-14.03 70.486a7.744 7.744 0 0 1-7.574 6.112H87.763a7.745 7.745 0 0 1-7.575-6.112l87.251-70.486h-.008Z" fill="url(#m)"/><path d="m117.399 269.819-51.16-40.416h101.192l-50.032 40.416Z" fill="url(#n)"/><defs><linearGradient id="h" x1="94.152" y1="81.65" x2="55.952" y2="51.301" gradientUnits="userSpaceOnUse"><stop stop-color="#346735"/><stop offset=".11" stop-color="#3B763C"/><stop offset=".48" stop-color="#54A955"/><stop offset=".76" stop-color="#63C965"/><stop offset=".92" stop-color="#69D56B"/></linearGradient><linearGradient id="a" x1="160.387" y1="60.311" x2="121.704" y2="128.737" gradientUnits="userSpaceOnUse"><stop offset=".25" stop-color="#69D56B"/><stop offset=".37" stop-color="#65CD67"/><stop offset=".55" stop-color="#5BB85C"/><stop offset=".76" stop-color="#4A954B"/><stop offset="1" stop-color="#346735"/></linearGradient><linearGradient id="c" x1="103.958" y1="143.959" x2="101.44" y2="186.253" gradientUnits="userSpaceOnUse"><stop stop-color="#69D56B"/><stop offset=".28" stop-color="#58B25A"/><stop offset=".76" stop-color="#3E7C3F"/><stop offset="1" stop-color="#346735"/></linearGradient><linearGradient id="d" x1="142.084" y1="144.996" x2="114.963" y2="212.35" gradientUnits="userSpaceOnUse"><stop stop-color="#B4EAB5"/><stop offset=".14" stop-color="#9CE39D"/><stop offset=".31" stop-color="#85DD87"/><stop offset=".5" stop-color="#75D877"/><stop offset=".72" stop-color="#6CD56D"/><stop offset="1" stop-color="#69D56B"/></linearGradient><linearGradient id="e" x1="87.984" y1="85.713" x2="23.606" y2="17.457" gradientUnits="userSpaceOnUse"><stop stop-color="#346735"/><stop offset=".07" stop-color="#3C773D"/><stop offset=".25" stop-color="#4C994D"/><stop offset=".43" stop-color="#58B35A"/><stop offset=".61" stop-color="#61C663"/><stop offset=".8" stop-color="#67D169"/><stop offset="1" stop-color="#69D56B"/></linearGradient><linearGradient id="f" x1="69.884" y1="46.741" x2="-3.433" y2="39.778" gradientUnits="userSpaceOnUse"><stop stop-color="#B4EAB5"/><stop offset=".14" stop-color="#9CE39D"/><stop offset=".31" stop-color="#85DD87"/><stop offset=".5" stop-color="#75D877"/><stop offset=".72" stop-color="#6CD56D"/><stop offset="1" stop-color="#69D56B"/></linearGradient><linearGradient id="g" x1="27.983" y1=".188" x2="109.834" y2="77.934" gradientUnits="userSpaceOnUse"><stop stop-color="#B4EAB5"/><stop offset=".14" stop-color="#9CE39D"/><stop offset=".31" stop-color="#85DD87"/><stop offset=".5" stop-color="#75D877"/><stop offset=".72" stop-color="#6CD56D"/><stop offset="1" stop-color="#69D56B"/></linearGradient><linearGradient id="b" x1="139.085" y1="139.153" x2="102.797" y2="88.572" gradientUnits="userSpaceOnUse"><stop stop-color="#B4EAB5"/><stop offset=".14" stop-color="#9CE39D"/><stop offset=".31" stop-color="#85DD87"/><stop offset=".5" stop-color="#75D877"/><stop offset=".72" stop-color="#6CD56D"/><stop offset="1" stop-color="#69D56B"/></linearGradient><linearGradient id="i" x1="219.236" y1="90.577" x2="165.74" y2="109.987" gradientUnits="userSpaceOnUse"><stop stop-color="#B4EAB5"/><stop offset=".14" stop-color="#9CE39D"/><stop offset=".31" stop-color="#85DD87"/><stop offset=".5" stop-color="#75D877"/><stop offset=".72" stop-color="#6CD56D"/><stop offset="1" stop-color="#69D56B"/></linearGradient><linearGradient id="j" x1="161.711" y1="121.185" x2="216.271" y2="109.167" gradientUnits="userSpaceOnUse"><stop stop-color="#346735"/><stop offset=".46" stop-color="#50A151"/><stop offset=".82" stop-color="#62C664"/><stop offset="1" stop-color="#69D56B"/></linearGradient><linearGradient id="k" x1="116.664" y1="211.573" x2="117.161" y2="231.924" gradientUnits="userSpaceOnUse"><stop stop-color="#FFD2B3"/><stop offset=".02" stop-color="#FECFAE"/><stop offset=".18" stop-color="#FBBC90"/><stop offset=".35" stop-color="#F9AD79"/><stop offset=".54" stop-color="#F8A368"/><stop offset=".74" stop-color="#F79C5F"/><stop offset="1" stop-color="#F79B5C"/></linearGradient><linearGradient id="l" x1="119.074" y1="264.426" x2="76.094" y2="275.682" gradientUnits="userSpaceOnUse"><stop offset=".19" stop-color="#B75920"/><stop offset=".4" stop-color="#C3652B"/><stop offset=".8" stop-color="#E38649"/><stop offset="1" stop-color="#F79B5C"/></linearGradient><linearGradient id="m" x1="123.805" y1="247.061" x2="123.805" y2="298.208" gradientUnits="userSpaceOnUse"><stop offset=".26" stop-color="#F79B5C"/><stop offset=".56" stop-color="#FAAF7D"/><stop offset="1" stop-color="#FFD2B3"/></linearGradient><linearGradient id="n" x1="116.835" y1="230.3" x2="116.835" y2="251.28" gradientUnits="userSpaceOnUse"><stop stop-color="#B75920"/><stop offset=".03" stop-color="#BF6127"/><stop offset=".15" stop-color="#D77A3E"/><stop offset=".27" stop-color="#E98C4F"/><stop offset=".39" stop-color="#F39758"/><stop offset=".54" stop-color="#F79B5C"/><stop offset=".7" stop-color="#F9AB76"/><stop offset="1" stop-color="#FFD2B3"/></linearGradient></defs></svg>