<svg preserveAspectRatio="xMidYMid meet" data-bbox="-0.003 0 386.699 145.84" xmlns="http://www.w3.org/2000/svg" viewBox="0 0 387 146" height="146" width="387" data-type="ugc" role="presentation" aria-hidden="true">
    <g>
        <g clip-path="url(#svgcid-jis62l-f0ll5z)">
            <path fill="url(#svgcid-isz327jb6yaj)" d="M166.34 2.32A4.65 4.65 0 0 0 162.33 0H4.64C2.98 0 1.45.88.62 2.32c-.83 1.43-.83 3.2 0 4.64l3.89 6.74a4.653 4.653 0 0 0 4.02 2.32h134.08L83.48 118.44 40.66 44.28a4.65 4.65 0 0 0-4.01-2.32c-1.65 0-3.19.88-4.01 2.32l-3.89 6.74c-.83 1.43-.83 3.2 0 4.64l50.72 87.86a4.65 4.65 0 0 0 4.01 2.32c1.65 0 3.19-.88 4.01-2.32L166.34 6.95c.83-1.43.83-3.2 0-4.64v.01Z"></path>
            <path fill="url(#svgcid--3v5s5n-innbty)" d="M104.22 34.4a2.59 2.59 0 0 0-.93-.93c-.38-.22-.81-.34-1.26-.34h-1.9.03-.06.03-35.19c-.9 0-1.74.48-2.19 1.26a2.54 2.54 0 0 0 0 2.53L81.3 69.05c.45.78 1.29 1.26 2.19 1.26.45 0 .89-.12 1.26-.34.38-.22.7-.53.93-.93l18.55-32.13c.45-.78.45-1.75 0-2.53l-.01.02Z"></path>
            <path fill="url(#svgcid--ckp1xbr3ul0p)" d="M171.32 46.12c.39 0 .67.06.84.18.18.12.34.31.49.58l17.05 31.31c.12.27.35.41.7.41h.29c.27 0 .48-.14.64-.41l16.82-31.31c.23-.5.68-.76 1.34-.76h7.62c.47 0 .75.13.84.38.1.25.05.57-.15.96l-19.09 34.97c-.97 1.78-1.92 2.97-2.85 3.55-.93.58-2.02.87-3.26.87h-3.38c-1.51 0-2.76-.29-3.75-.87-.99-.58-1.97-1.76-2.94-3.55l-19.32-34.97c-.19-.39-.24-.71-.15-.96.1-.25.4-.38.9-.38h7.36Z"></path>
            <path fill="url(#svgcid-rqsxzj-biueft)" d="M246.86 54.9c1.98 0 3.62.17 4.92.49 1.3.33 2.33.87 3.08 1.63.76.76 1.29 1.75 1.6 2.97.31 1.22.46 2.71.46 4.45v5.53c0 1.24-.27 2.11-.81 2.59-.54.49-1.38.73-2.5.73h-29.39v1.4c0 1.82.44 3.14 1.31 3.96.87.82 2.57 1.22 5.09 1.22h24.27c.7 0 1.05.35 1.05 1.05v4.89c0 .7-.35 1.05-1.05 1.05h-25.08c-2.64 0-4.84-.21-6.6-.64-1.77-.43-3.18-1.11-4.25-2.07-1.07-.95-1.83-2.17-2.3-3.67-.47-1.49-.7-3.29-.7-5.38v-8.38c0-2.09.23-3.89.7-5.38.46-1.49 1.23-2.72 2.3-3.67 1.07-.95 2.48-1.65 4.25-2.09 1.76-.45 3.97-.67 6.6-.67h17.05v-.01Zm-22.64 13.21h23.57c.66 0 .99-.33.99-.99v-2.44c0-1.2-.25-2.06-.76-2.56-.5-.5-1.44-.76-2.79-.76h-14.61c-2.52 0-4.22.4-5.09 1.19-.87.8-1.31 2.12-1.31 3.99v1.57Z"></path>
            <path fill="url(#svgcid--jaui93-5f1qo5)" d="M293.12 54.9c.7 0 1.05.35 1.05 1.05v4.89c0 .7-.35 1.05-1.05 1.05h-15.48c-1.24 0-2.27.11-3.08.32-.82.21-1.46.56-1.95 1.05s-.82 1.15-1.02 1.98c-.19.84-.29 1.85-.29 3.06v17.28c0 .85-.43 1.28-1.28 1.28h-5.7c-.89 0-1.34-.43-1.34-1.28V66.73c0-2.09.23-3.89.7-5.38.47-1.49 1.23-2.72 2.3-3.67 1.07-.95 2.48-1.65 4.25-2.09 1.76-.45 3.97-.67 6.6-.67h16.29v-.02Z"></path>
            <path fill="url(#svgcid--k0rgv8-1wn4kb)" d="M336.01 69.69c-1.4-1.36-3.72-2.04-6.98-2.04h-9.8l3.26 5.64h4.27c1.2 0 2.05.21 2.53.64.48.43.73 1.03.73 1.8v1.57c0 1.01-.24 1.73-.73 2.15-.49.43-1.33.64-2.53.64h-27.58c-.7 0-1.05.35-1.05 1.05v4.66c0 .7.35 1.05 1.05 1.05h29.8c1.71 0 3.14-.18 4.31-.55 1.16-.37 2.1-.9 2.82-1.6.72-.7 1.23-1.55 1.54-2.56.31-1.01.47-2.15.47-3.43v-3.26c0-2.48-.7-4.4-2.09-5.76h-.02Z"></path>
            <path fill="url(#svgcid-t19138-ir3tr8)" d="M307.2 73.29h10.6l-3.26-5.64h-5.13c-1.2 0-2.04-.22-2.5-.67-.47-.45-.7-1.06-.7-1.83v-.87c0-.85.23-1.5.7-1.95.47-.45 1.3-.67 2.5-.67h26.25c.7 0 1.05-.35 1.05-1.05v-4.66c0-.7-.35-1.05-1.05-1.05h-28.4c-1.71 0-3.14.18-4.31.55-1.16.37-2.11.9-2.82 1.6a5.93 5.93 0 0 0-1.54 2.53c-.31.99-.47 2.09-.47 3.29v2.56c0 2.56.7 4.51 2.09 5.85 1.4 1.34 3.72 2.01 6.98 2.01h.01Z"></path>
            <path fill="url(#svgcid--c2kg0d2lke4r)" d="M385.77 54.91c.43 0 .71.15.84.44.14.29.11.63-.09 1.02l-22.35 39.4c-.78 1.36-1.87 2.36-3.29 3-1.42.64-3.38.96-5.91.96h-4.07c-.7 0-1.05-.35-1.05-1.05v-4.77c0-.7.35-1.05 1.05-1.05h3.43c1.47 0 2.46-.45 2.97-1.34l3.14-5.53c-.97-.08-1.72-.31-2.24-.7-.52-.39-1.02-.99-1.48-1.8l-15.71-27.12c-.19-.39-.22-.73-.09-1.02.13-.29.42-.44.84-.44h6.69c.66 0 1.12.27 1.4.81l12.92 22.4c.31.54.55.9.73 1.08.17.17.4.26.67.26l13.68-23.74c.27-.54.74-.81 1.4-.81h6.52Z"></path>
        </g>
        <defs fill="none">
            <linearGradient gradientUnits="userSpaceOnUse" y2="146.405" x2=".486" y1=".81" x1="167.623" id="svgcid-isz327jb6yaj">
                <stop stop-color="#D92650"></stop>
                <stop stop-color="#8800B5" offset="1"></stop>
            </linearGradient>
            <linearGradient gradientUnits="userSpaceOnUse" y2="70.046" x2="62.184" y1="33.336" x1="104.734" id="svgcid--3v5s5n-innbty">
                <stop stop-color="#D92650"></stop>
                <stop stop-color="#8800B5" offset="1"></stop>
            </linearGradient>
            <linearGradient gradientUnits="userSpaceOnUse" y2="43.37" x2="176.655" y1="86.295" x1="176.655" id="svgcid--ckp1xbr3ul0p">
                <stop stop-color="#D92650"></stop>
                <stop stop-color="#8800B5" offset="1"></stop>
            </linearGradient>
            <linearGradient gradientUnits="userSpaceOnUse" y2="52.742" x2="226.12" y1="86.425" x1="226.12" id="svgcid-rqsxzj-biueft">
                <stop stop-color="#D92650"></stop>
                <stop stop-color="#8800B5" offset="1"></stop>
            </linearGradient>
            <linearGradient gradientUnits="userSpaceOnUse" y2="52.742" x2="270.717" y1="86.425" x1="270.717" id="svgcid--jaui93-5f1qo5">
                <stop stop-color="#D92650"></stop>
                <stop stop-color="#8800B5" offset="1"></stop>
            </linearGradient>
            <linearGradient gradientUnits="userSpaceOnUse" y2="66.354" x2="308.049" y1="86.589" x1="308.049" id="svgcid--k0rgv8-1wn4kb">
                <stop stop-color="#D92650"></stop>
                <stop stop-color="#8800B5" offset="1"></stop>
            </linearGradient>
            <linearGradient gradientUnits="userSpaceOnUse" y2="53.658" x2="307.692" y1="73.04" x1="307.692" id="svgcid-t19138-ir3tr8">
                <stop stop-color="#D92650"></stop>
                <stop stop-color="#8800B5" offset="1"></stop>
            </linearGradient>
            <linearGradient gradientUnits="userSpaceOnUse" y2="51.884" x2="352.215" y1="99.12" x1="352.215" id="svgcid--c2kg0d2lke4r">
                <stop stop-color="#D92650"></stop>
                <stop stop-color="#8800B5" offset="1"></stop>
            </linearGradient>
            <clipPath id="svgcid-jis62l-f0ll5z">
                <path fill="#ffffff" d="M386.7 0v145.83H0V0h386.7z"></path>
            </clipPath>
        </defs>
    </g>
</svg>